<svg width="60" height="60" viewBox="0 0 60 60" fill="none" xmlns="http://www.w3.org/2000/svg">
<g clip-path="url(#clip0_60_857)">
<path d="M8.80183 51.1983C20.5062 62.9259 39.5038 62.9346 51.2194 51.2189C62.9351 39.5033 62.9263 20.5057 51.1988 8.80134C39.4945 -2.92569 20.4969 -2.93498 8.78119 8.7807C-2.93449 20.4964 -2.9252 39.494 8.80183 51.1983ZM2.15661 31.0568H9.30232C9.54276 35.8177 11.4235 40.3489 14.6251 43.8808L9.57321 48.9322C5.03677 44.0562 2.4048 37.7118 2.15661 31.0568ZM16.1199 45.3756C19.6517 48.5766 24.1825 50.4569 28.9433 50.6973V57.843C22.2883 57.5948 15.9439 54.9623 11.068 50.4259L16.1199 45.3756ZM31.0568 50.6973C35.8481 50.4553 40.4057 48.5529 43.9468 45.3162L48.9971 50.3666C44.1135 54.9391 37.7427 57.5943 31.0568 57.8435V50.6973ZM45.4338 43.8147C48.6004 40.2922 50.4589 35.7872 50.6978 31.0568H57.8435C57.5969 37.6819 54.9871 44 50.4862 48.8677L45.4338 43.8147ZM50.6978 28.9434C50.4573 24.1825 48.5771 19.6512 45.375 16.1194L50.4269 11.0675C54.9638 15.9434 57.5963 22.2878 57.8445 28.9434H50.6978ZM43.8813 14.6251C40.3489 11.4235 35.8176 9.54279 31.0568 9.30235V2.15561C37.7123 2.40379 44.0567 5.03629 48.9326 9.57272L43.8813 14.6251ZM28.9433 9.30235C24.2129 9.54124 19.7085 11.3998 16.1854 14.5663L11.1325 9.51338C16.0007 5.01255 22.3183 2.40276 28.9433 2.15561V9.30235ZM30.0001 11.3895C40.2622 11.3889 48.6112 19.7379 48.6112 30.0001C48.6112 40.2623 40.2622 48.6107 30.0001 48.6107C19.7379 48.6107 11.3889 40.2628 11.3889 30.0001C11.3889 19.7374 19.7384 11.3889 30.0001 11.3889V11.3895ZM9.63358 11.003L14.6844 16.0539C11.4472 19.5945 9.54483 24.152 9.30284 28.9434H2.15713C2.40634 22.2579 5.06102 15.8872 9.63358 11.003Z" fill="white"/>
<path d="M34.0432 22.2534C34.9201 22.2534 35.6311 21.5544 35.6311 20.6921C35.6311 19.8299 34.9201 19.1309 34.0432 19.1309C33.1662 19.1309 32.4553 19.8299 32.4553 20.6921C32.4553 21.5544 33.1662 22.2534 34.0432 22.2534Z" fill="white"/>
<path d="M35.6239 26.8256C35.6239 23.5149 32.9008 20.8245 29.5509 20.8245C26.2011 20.8245 23.478 23.508 23.478 26.8256C23.478 30.1433 26.2011 32.8267 29.5509 32.8267C32.9008 32.8267 35.6239 30.1433 35.6239 26.8256ZM25.3863 26.8465C25.3863 24.5534 27.2666 22.6925 29.5927 22.6925C31.9188 22.6925 33.7992 24.5534 33.7992 26.8465C33.7992 29.1396 31.9188 31.0006 29.5927 31.0006C27.2666 31.0006 25.3863 29.1396 25.3863 26.8465Z" fill="white"/>
<path d="M31.4873 32.6455C29.189 32.6455 27.3226 34.4856 27.3226 36.7577C27.3226 39.0299 29.189 40.87 31.4873 40.87C33.7855 40.87 35.6519 39.0299 35.6519 36.7577C35.6519 34.4856 33.7855 32.6455 31.4873 32.6455ZM31.5151 39.1554C30.178 39.1554 29.0915 38.082 29.0915 36.7647C29.0915 35.4474 30.178 34.374 31.5151 34.374C32.8523 34.374 33.9387 35.4474 33.9387 36.7647C33.9387 38.082 32.8523 39.1554 31.5151 39.1554Z" fill="white"/>
</g>
<defs>
<clipPath id="clip0_60_857">
<rect width="60" height="60" fill="white"/>
</clipPath>
</defs>
</svg>
